<?xml version="1.0" encoding="UTF-8" ?>
<!DOCTYPE svg PUBLIC "-//W3C//DTD SVG 1.1//EN" "http://www.w3.org/Graphics/SVG/1.1/DTD/svg11.dtd">
<svg width="1155pt" height="866pt" viewBox="0 0 1155 866" version="1.1" xmlns="http://www.w3.org/2000/svg">
<path fill="#465c66" d=" M 0.00 0.00 L 25.28 0.00 C 19.06 1.23 12.88 3.75 8.40 8.36 C 3.89 12.71 1.36 18.66 0.00 24.68 L 0.00 0.00 Z" />
<path fill="#f5f4f0" d=" M 25.28 0.00 L 1131.16 0.00 C 1137.43 1.99 1143.82 4.68 1148.07 9.94 C 1151.70 14.02 1153.66 19.24 1155.00 24.46 L 1155.00 841.37 C 1153.56 847.58 1150.90 853.72 1146.13 858.10 C 1141.45 862.59 1135.17 865.20 1128.78 866.00 L 25.34 866.00 C 19.56 864.86 13.80 862.67 9.43 858.61 C 4.23 854.04 1.15 847.47 0.00 840.72 L 0.00 24.68 C 1.36 18.66 3.89 12.71 8.40 8.36 C 12.88 3.75 19.06 1.23 25.28 0.00 Z" />
<path fill="#465c66" d=" M 1131.16 0.00 L 1155.00 0.00 L 1155.00 24.46 C 1153.66 19.24 1151.70 14.02 1148.07 9.94 C 1143.82 4.68 1137.43 1.99 1131.16 0.00 Z" />
<path fill="#d15419" d=" M 627.90 42.08 C 655.94 40.91 684.05 39.74 712.09 41.51 C 737.25 42.70 762.69 45.15 786.62 53.47 C 802.10 58.43 816.81 65.68 830.31 74.72 C 846.21 85.46 859.80 99.29 871.86 114.13 C 878.48 122.23 883.32 131.53 888.45 140.59 C 893.14 148.93 897.79 157.32 901.99 165.92 C 909.53 183.89 916.91 201.99 922.07 220.81 C 924.87 233.63 927.59 246.48 929.22 259.52 C 930.74 274.65 932.66 289.75 933.36 304.95 C 934.10 323.94 933.84 342.94 933.56 361.94 C 933.27 410.46 928.63 458.84 922.20 506.89 C 919.81 521.99 916.80 536.98 913.64 551.94 C 906.87 578.33 898.87 604.40 890.12 630.20 C 885.27 643.92 880.16 657.54 875.11 671.19 C 871.36 679.59 868.46 689.02 861.11 695.09 C 854.08 701.21 844.73 703.21 835.98 705.54 C 823.54 708.54 811.03 711.57 798.28 712.80 C 790.85 713.38 783.44 714.06 775.98 713.84 C 765.87 714.65 755.72 713.95 745.63 714.83 C 710.61 716.05 675.56 713.92 640.60 711.98 C 616.75 710.40 592.94 708.11 569.04 707.48 C 538.03 706.74 507.01 707.52 476.01 706.84 C 459.36 706.43 442.71 706.33 426.08 705.62 C 398.25 705.20 370.42 702.69 342.99 697.93 C 328.06 694.78 313.12 691.01 299.16 684.72 C 287.96 679.95 276.93 673.45 269.60 663.48 C 260.33 651.43 253.15 637.69 249.08 623.01 C 246.23 612.39 243.26 601.80 240.84 591.08 C 234.14 552.52 226.95 514.01 217.54 476.01 C 214.18 460.40 210.73 444.80 207.95 429.07 C 202.33 400.38 197.80 371.40 196.10 342.19 C 196.45 335.25 195.56 328.34 195.31 321.42 C 194.54 307.60 194.70 293.76 194.68 279.93 C 194.61 266.83 196.05 253.69 194.80 240.62 C 194.50 237.97 194.52 235.29 194.88 232.65 C 196.31 221.83 195.15 210.87 195.71 199.99 C 196.59 185.36 196.59 170.70 196.69 156.05 C 197.94 138.73 197.22 121.34 198.31 104.01 C 198.66 98.02 197.87 91.92 199.28 86.02 C 200.66 99.63 200.22 113.34 201.03 126.99 C 201.74 144.32 201.50 161.68 202.40 179.00 C 202.72 189.35 202.31 199.72 203.10 210.05 C 203.66 228.69 203.40 247.35 204.30 265.97 C 204.18 283.34 205.34 300.67 205.73 318.03 C 206.53 325.47 206.09 333.05 207.71 340.39 C 209.56 354.91 210.88 369.49 212.89 384.00 C 214.83 402.21 219.38 420.00 222.36 438.05 C 230.46 482.46 241.15 526.39 247.87 571.04 C 249.50 587.81 253.70 604.15 257.17 620.60 C 259.60 628.51 261.23 636.80 265.35 644.08 C 271.49 656.95 280.79 669.02 294.00 675.16 C 312.45 684.22 332.59 689.47 352.94 692.02 C 373.46 695.29 394.28 695.65 414.99 696.82 C 438.33 696.92 461.68 696.70 485.03 696.87 C 510.70 697.90 536.39 696.19 562.06 697.20 C 582.08 696.98 602.03 698.84 622.01 699.72 C 659.96 702.19 697.98 703.17 735.99 704.03 C 754.66 704.60 773.35 705.28 792.02 704.60 C 807.03 703.18 822.00 701.22 836.89 698.87 C 844.89 696.91 853.71 695.80 860.10 690.11 C 865.53 684.71 867.42 677.02 870.16 670.12 C 879.51 643.02 888.20 615.68 895.42 587.94 C 902.47 561.36 908.81 534.50 911.89 507.13 C 917.65 467.64 920.60 427.81 922.52 387.96 C 922.79 360.31 923.89 332.65 923.11 305.00 C 920.89 273.43 918.54 241.52 909.23 211.10 C 903.15 193.57 897.50 175.80 889.15 159.17 C 882.07 144.90 874.92 130.54 865.68 117.52 C 856.17 105.68 845.53 94.66 833.53 85.33 C 816.14 72.72 796.42 63.25 775.54 58.10 C 758.75 53.33 741.26 52.42 723.94 51.39 C 708.62 50.82 693.29 51.23 677.97 51.22 C 657.18 51.08 636.49 53.47 615.76 54.61 C 561.72 58.38 507.86 64.20 453.92 69.11 C 433.63 70.68 413.36 72.59 393.02 73.31 C 358.36 74.99 323.66 75.95 289.05 78.43 C 277.15 79.87 265.19 80.89 253.42 83.18 C 243.70 84.56 234.51 88.15 224.97 90.29 C 221.36 90.98 218.13 93.22 214.42 93.37 C 212.90 92.21 211.90 89.99 213.57 88.48 C 217.92 86.21 222.77 85.13 227.37 83.47 C 242.03 78.29 257.08 74.21 272.42 71.67 C 282.52 69.67 292.66 67.81 302.95 67.16 C 310.98 66.64 318.87 64.72 326.96 64.67 C 354.61 62.47 382.32 61.20 409.94 58.62 C 425.45 56.97 441.05 56.33 456.57 54.80 C 469.39 53.59 482.27 53.17 495.06 51.67 C 514.95 49.29 534.95 48.09 554.93 46.66 C 579.22 44.68 603.57 43.41 627.90 42.08 Z" />
<path fill="#e8ac41" d=" M 463.80 78.78 C 484.47 72.04 506.21 68.41 527.98 68.82 C 548.16 68.66 568.21 71.78 587.95 75.71 C 600.96 77.84 613.44 82.21 626.00 86.06 C 658.22 97.65 688.08 115.56 713.79 138.15 C 737.67 159.78 758.87 185.02 772.45 214.45 C 782.18 234.39 787.97 256.01 791.55 277.84 C 792.77 286.49 793.97 295.19 793.78 303.95 C 793.65 316.63 794.33 329.37 792.68 341.99 C 791.78 355.56 788.92 368.88 787.39 382.37 C 811.32 383.15 835.23 384.96 859.01 387.82 C 871.96 389.75 885.23 391.33 897.32 396.65 C 903.12 399.27 908.92 403.58 910.55 410.06 C 911.96 416.29 908.74 422.28 905.22 427.18 C 905.79 427.77 906.37 428.36 906.96 428.95 C 905.52 435.85 905.65 443.18 902.39 449.58 C 900.83 452.75 899.61 456.59 896.36 458.43 C 893.40 459.06 891.78 455.88 890.21 453.96 C 888.25 459.69 886.03 466.34 880.24 469.24 C 875.81 470.92 871.94 467.64 868.08 466.09 C 864.80 467.55 861.70 469.84 857.94 469.69 C 850.86 469.61 843.50 469.13 837.03 465.98 C 834.97 465.16 832.76 463.44 830.48 464.47 C 823.99 467.16 818.14 471.66 811.05 472.73 C 804.70 473.26 797.85 472.22 792.67 468.28 C 791.51 467.46 790.38 466.59 789.09 466.03 C 785.66 469.29 782.50 473.02 778.08 474.99 C 769.42 479.51 759.19 478.38 750.14 475.81 C 746.54 474.63 743.53 472.23 740.04 470.83 C 736.24 471.69 732.84 473.82 728.96 474.35 C 719.43 475.42 709.28 471.82 703.52 463.93 C 702.61 462.89 701.72 461.86 700.83 460.84 C 698.46 462.41 696.14 464.03 693.85 465.70 C 688.64 468.80 681.70 470.46 676.40 466.64 C 669.62 461.63 667.87 452.75 662.99 446.23 C 659.42 448.85 656.44 452.75 652.00 453.89 C 646.15 454.21 642.33 448.70 639.74 444.20 C 639.18 443.17 638.67 442.13 638.20 441.07 C 636.41 436.55 634.83 431.87 634.52 426.99 C 634.22 421.31 634.84 415.62 634.57 409.95 C 634.34 405.63 632.02 401.81 631.05 397.68 C 633.36 390.54 635.15 382.24 642.20 378.16 C 640.45 380.15 638.46 381.92 636.92 384.09 C 635.11 386.74 634.72 390.03 634.14 393.11 C 639.71 390.58 645.01 387.44 650.85 385.52 C 662.00 381.14 674.15 380.24 686.03 380.34 C 686.22 379.99 686.62 379.28 686.81 378.93 C 707.46 380.21 728.17 379.62 748.84 380.51 C 749.65 380.54 751.27 380.58 752.08 380.61 C 763.57 380.79 775.05 381.14 786.54 381.23 C 787.89 368.43 790.67 355.82 791.58 342.97 C 793.34 327.79 792.99 312.48 792.66 297.24 C 789.81 259.30 778.53 221.54 757.34 189.73 C 748.23 175.22 736.72 162.43 724.88 150.12 C 707.39 132.49 687.23 117.68 665.72 105.32 C 658.87 101.75 651.90 98.41 645.01 94.91 C 631.48 88.59 617.15 84.21 602.81 80.13 C 594.35 77.65 585.60 76.47 576.98 74.70 C 566.40 72.59 555.65 71.51 544.93 70.41 C 537.30 69.80 529.64 70.14 522.00 70.03 C 506.05 69.74 490.24 72.66 474.84 76.57 C 459.98 80.75 445.30 86.03 431.89 93.78 C 425.34 97.55 418.79 101.35 412.50 105.55 C 400.90 112.97 390.86 122.48 380.79 131.79 C 374.98 136.98 370.09 143.06 364.53 148.50 C 351.44 163.69 339.52 179.90 328.80 196.85 C 323.98 205.45 318.49 213.73 314.83 222.93 C 310.53 232.50 305.31 241.65 301.19 251.31 C 300.00 254.62 299.94 258.24 298.55 261.50 C 291.65 277.80 286.71 294.88 283.24 312.22 C 276.01 348.63 275.08 386.61 283.05 422.99 C 288.62 446.14 297.06 468.81 310.09 488.84 C 314.19 494.78 317.90 500.98 322.33 506.69 C 328.13 513.84 334.22 520.79 340.74 527.30 C 347.23 532.78 352.88 539.22 359.72 544.31 C 379.46 559.30 401.03 572.12 424.36 580.67 C 442.84 587.86 462.46 591.73 482.09 594.17 C 496.28 596.39 510.69 595.85 525.00 595.80 C 533.83 595.81 542.55 594.23 551.35 593.68 C 552.50 593.82 553.66 593.97 554.83 594.13 C 554.69 594.38 554.42 594.87 554.29 595.11 C 546.89 594.03 539.44 596.43 531.99 596.61 C 519.64 596.90 507.28 596.90 494.93 596.60 C 475.00 594.84 455.15 591.66 435.96 585.89 C 407.15 576.86 380.36 561.94 356.66 543.31 C 352.07 539.50 348.01 535.12 343.47 531.26 C 335.22 523.99 328.13 515.53 321.21 507.02 C 311.44 493.60 302.31 479.59 295.67 464.32 C 287.54 446.05 282.11 426.63 278.92 406.91 C 276.79 389.03 275.38 370.97 276.98 352.98 C 277.37 344.92 277.85 336.85 279.45 328.93 C 282.51 304.93 288.97 281.38 298.35 259.08 C 299.48 256.02 298.93 252.52 300.66 249.64 C 303.31 244.53 305.51 239.19 308.21 234.11 C 313.13 225.19 316.29 215.40 321.84 206.81 C 329.53 192.37 339.17 179.10 348.88 165.97 C 359.78 151.62 371.99 138.30 385.23 126.07 C 393.19 119.04 400.97 111.70 409.96 105.96 C 426.69 94.75 444.44 84.67 463.80 78.78 Z" />
<path fill="#f7e5c8" d=" M 474.84 76.57 C 490.24 72.66 506.05 69.74 522.00 70.03 C 529.64 70.14 537.30 69.80 544.93 70.41 C 555.65 71.51 566.40 72.59 576.98 74.70 C 585.60 76.47 594.35 77.65 602.81 80.13 C 617.15 84.21 631.48 88.59 645.01 94.91 C 651.90 98.41 658.87 101.75 665.72 105.32 C 687.23 117.68 707.39 132.49 724.88 150.12 C 736.72 162.43 748.23 175.22 757.34 189.73 C 778.53 221.54 789.81 259.30 792.66 297.24 C 792.99 312.48 793.34 327.79 791.58 342.97 C 790.67 355.82 787.89 368.43 786.54 381.23 C 775.05 381.14 763.57 380.79 752.08 380.61 C 758.33 365.42 762.03 349.37 764.32 333.14 C 765.69 322.48 768.08 311.81 767.12 301.00 C 766.40 292.53 765.59 284.02 763.65 275.73 C 761.24 279.69 758.47 283.59 757.30 288.13 C 756.87 293.41 758.28 298.65 758.20 303.94 C 758.70 329.74 755.02 355.51 748.84 380.51 C 728.17 379.62 707.46 380.21 686.81 378.93 C 698.95 359.22 710.41 339.06 720.36 318.15 C 727.44 302.46 733.80 286.18 736.32 269.06 C 737.21 265.23 735.57 261.47 732.30 259.38 C 731.08 259.43 729.87 259.49 728.68 259.56 C 728.11 254.12 721.54 254.28 717.40 254.21 C 717.20 257.72 715.47 262.18 718.72 264.81 C 714.48 267.98 710.50 271.48 706.56 275.00 C 702.14 273.74 699.29 277.84 696.45 280.46 C 680.75 296.35 666.55 313.63 652.18 330.70 C 662.48 316.44 672.06 301.66 682.51 287.51 C 684.70 284.52 687.80 282.45 690.51 279.98 C 684.35 281.59 680.83 287.32 676.76 291.72 C 653.61 319.98 630.74 348.48 608.41 377.39 C 586.47 405.31 564.49 433.50 547.62 464.87 C 544.48 470.84 540.87 476.65 539.07 483.21 C 536.69 490.87 533.34 498.70 534.59 506.89 C 535.61 512.29 540.98 515.84 546.27 516.05 C 554.86 516.30 562.70 512.06 570.01 508.03 C 586.67 498.28 601.07 485.20 614.56 471.51 C 620.76 465.34 626.78 458.98 632.38 452.26 C 636.64 463.62 640.75 475.04 645.53 486.20 C 649.73 496.11 652.94 506.41 656.13 516.69 C 648.78 519.48 641.45 522.66 635.22 527.54 C 637.13 528.77 639.25 529.64 641.13 530.94 C 642.55 533.05 642.71 535.73 643.37 538.15 C 648.41 533.33 653.09 528.17 658.22 523.45 C 661.42 534.18 665.10 544.75 668.55 555.39 C 659.50 561.17 649.74 565.73 640.00 570.19 C 620.82 577.73 601.10 583.94 580.99 588.46 C 571.15 590.38 561.38 592.95 551.35 593.68 C 542.55 594.23 533.83 595.81 525.00 595.80 C 510.69 595.85 496.28 596.39 482.09 594.17 C 462.46 591.73 442.84 587.86 424.36 580.67 C 401.03 572.12 379.46 559.30 359.72 544.31 C 352.88 539.22 347.23 532.78 340.74 527.30 C 334.22 520.79 328.13 513.84 322.33 506.69 C 317.90 500.98 314.19 494.78 310.09 488.84 C 297.06 468.81 288.62 446.14 283.05 422.99 C 275.08 386.61 276.01 348.63 283.24 312.22 C 286.71 294.88 291.65 277.80 298.55 261.50 C 299.94 258.24 300.00 254.62 301.19 251.31 C 305.31 241.65 310.53 232.50 314.83 222.93 C 318.49 213.73 323.98 205.45 328.80 196.85 C 339.52 179.90 351.44 163.69 364.53 148.50 C 370.09 143.06 374.98 136.98 380.79 131.79 C 390.86 122.48 400.90 112.97 412.50 105.55 C 418.79 101.35 425.34 97.55 431.89 93.78 C 445.30 86.03 459.98 80.75 474.84 76.57 Z" />
<path fill="#465c66" d=" M 198.17 85.46 C 198.76 85.51 199.95 85.63 200.54 85.69 C 200.83 113.15 202.45 140.58 202.69 168.04 C 203.35 187.35 203.42 206.67 204.06 225.97 C 204.55 253.29 204.89 280.62 206.16 307.92 C 206.09 318.77 207.55 329.55 207.71 340.39 C 206.09 333.05 206.53 325.47 205.73 318.03 C 205.34 300.67 204.18 283.34 204.30 265.97 C 203.40 247.35 203.66 228.69 203.10 210.05 C 202.31 199.72 202.72 189.35 202.40 179.00 C 201.50 161.68 201.74 144.32 201.03 126.99 C 200.22 113.34 200.66 99.63 199.28 86.02 C 197.87 91.92 198.66 98.02 198.31 104.01 C 197.22 121.34 197.94 138.73 196.69 156.05 C 196.59 170.70 196.59 185.36 195.71 199.99 C 195.15 210.87 196.31 221.83 194.88 232.65 C 194.67 218.44 195.01 204.22 195.57 190.02 C 195.93 163.67 196.89 137.34 197.33 110.99 C 197.76 102.48 197.40 93.94 198.17 85.46 Z" />
<path fill="#f5f4f0" d=" M 503.90 97.66 C 527.55 93.73 551.63 96.80 575.08 100.69 C 597.21 104.52 618.90 111.09 639.20 120.75 C 644.67 123.62 650.44 126.10 655.32 129.93 C 647.75 127.75 640.64 124.23 633.09 121.95 C 627.45 120.30 622.63 116.80 617.11 114.86 C 605.25 110.48 592.55 109.05 580.01 108.23 C 575.59 107.93 571.34 106.60 567.05 105.66 C 554.15 102.71 541.06 100.61 527.90 99.38 C 519.91 98.61 511.86 98.66 503.90 97.66 Z" />
<path fill="#f5f4f0" d=" M 432.62 135.00 C 431.39 131.39 428.71 125.40 433.86 123.69 C 433.51 127.47 433.04 131.23 432.62 135.00 Z" />
<path fill="#f5f4f0" d=" M 441.41 147.43 C 443.18 146.40 443.83 148.81 444.28 150.06 C 443.33 153.10 439.63 154.13 436.75 154.21 C 438.03 151.79 439.24 149.19 441.41 147.43 Z" />
<path fill="#030302" d=" M 487.40 152.60 C 488.94 151.84 491.40 152.17 492.00 154.02 C 492.97 155.55 491.76 157.41 491.46 158.99 C 485.53 173.69 478.20 187.79 470.31 201.52 C 460.93 218.20 451.90 235.06 442.85 251.92 C 428.64 276.99 415.90 303.16 397.64 325.66 C 390.82 334.39 383.46 342.76 374.96 349.89 C 371.74 352.38 368.48 354.80 365.47 357.55 C 364.03 358.91 361.82 358.41 360.05 358.97 C 356.18 359.78 351.66 361.22 348.10 358.75 C 344.41 355.95 345.08 350.83 346.10 346.89 C 348.42 339.14 351.75 331.71 355.40 324.51 C 366.68 304.59 379.41 285.54 392.59 266.85 C 409.48 242.07 429.36 219.55 448.89 196.85 C 453.19 191.85 457.66 186.96 462.47 182.45 C 464.06 180.92 466.36 180.44 467.97 179.00 C 473.71 169.73 479.32 160.05 487.40 152.60 Z" />
<path fill="#f5f4f0" d=" M 715.94 178.91 C 717.58 180.30 719.20 181.73 720.57 183.41 C 727.30 191.78 734.01 200.24 739.41 209.56 C 746.48 221.77 752.68 234.55 756.89 248.05 C 759.09 254.91 761.44 261.83 762.26 269.01 C 761.12 271.98 759.02 274.43 757.22 277.00 C 756.26 269.03 756.38 260.94 754.90 253.03 C 752.94 242.20 749.20 231.36 742.07 222.82 C 738.84 218.75 733.90 216.41 731.00 212.06 C 728.51 208.82 726.60 205.15 725.78 201.13 C 724.00 193.12 719.32 186.26 715.94 178.91 Z" />
<path fill="#f7e5c8" d=" M 450.23 200.01 C 455.40 194.17 459.08 186.93 465.35 182.16 C 464.43 184.13 463.11 185.89 461.62 187.46 C 457.73 191.56 454.00 195.81 450.23 200.01 Z" />
<path fill="#f5f4f0" d=" M 618.95 195.01 C 621.09 193.89 623.58 194.33 625.90 194.38 C 630.31 194.74 634.87 194.72 639.06 196.35 C 636.37 198.39 633.74 201.60 629.98 200.90 C 625.87 200.40 621.38 198.33 618.95 195.01 Z" />
<path fill="#030302" d=" M 592.79 210.90 C 597.64 207.88 603.18 203.23 609.25 205.50 C 609.97 206.62 610.70 207.73 611.45 208.85 C 611.10 215.55 608.41 221.79 606.02 227.96 C 598.98 244.68 588.44 259.58 578.24 274.47 C 564.72 293.42 550.77 312.07 536.09 330.15 C 529.04 339.11 521.01 347.34 515.14 357.17 C 504.12 373.35 493.66 390.05 480.50 404.61 C 477.56 407.71 473.43 412.58 468.86 409.35 C 463.26 415.90 457.39 422.22 451.51 428.52 C 449.64 430.18 447.61 432.82 444.81 432.29 C 451.28 428.30 454.99 421.49 459.77 415.83 C 465.72 408.44 471.39 400.81 475.74 392.34 C 472.48 397.51 469.08 402.60 465.44 407.51 C 462.52 410.74 457.37 409.60 454.97 406.31 C 450.23 410.49 446.03 415.76 440.01 418.12 C 435.26 420.10 430.78 414.37 432.41 409.92 C 435.17 401.18 439.61 393.07 443.67 384.88 C 453.54 365.28 465.27 346.68 477.95 328.79 C 486.67 316.46 496.65 305.12 506.58 293.77 C 520.99 277.73 535.91 262.16 551.36 247.13 C 564.60 234.44 577.83 221.60 592.79 210.90 Z" />
<path fill="#f7e5c8" d=" M 571.16 239.12 C 581.14 229.08 590.98 218.55 603.13 211.08 C 601.81 213.87 600.29 216.57 598.56 219.13 C 597.04 219.36 595.15 218.70 593.97 219.98 C 586.78 226.47 580.63 234.00 574.61 241.55 C 573.25 243.26 571.38 244.44 569.68 245.75 C 563.55 250.57 558.02 256.08 552.35 261.40 C 548.73 264.35 545.32 267.53 542.14 270.95 C 551.36 259.95 561.37 249.62 571.16 239.12 Z" />
<path fill="#030302" d=" M 196.10 342.19 C 193.26 308.41 194.47 274.47 194.80 240.62 C 196.05 253.69 194.61 266.83 194.68 279.93 C 194.70 293.76 194.54 307.60 195.31 321.42 C 195.56 328.34 196.45 335.25 196.10 342.19 Z" />
<path fill="#f5f4f0" d=" M 717.40 254.21 C 721.54 254.28 728.11 254.12 728.68 259.56 C 725.05 260.66 721.81 262.68 718.72 264.81 C 715.47 262.18 717.20 257.72 717.40 254.21 Z" />
<path fill="#030302" d=" M 718.72 264.81 C 721.81 262.68 725.05 260.66 728.68 259.56 C 729.87 259.49 731.08 259.43 732.30 259.38 C 735.57 261.47 737.21 265.23 736.32 269.06 C 733.80 286.18 727.44 302.46 720.36 318.15 C 710.41 339.06 698.95 359.22 686.81 378.93 C 686.62 379.28 686.22 379.99 686.03 380.34 C 674.15 380.24 662.00 381.14 650.85 385.52 C 645.01 387.44 639.71 390.58 634.14 393.11 C 634.72 390.03 635.11 386.74 636.92 384.09 C 638.46 381.92 640.45 380.15 642.20 378.16 C 635.15 382.24 633.36 390.54 631.05 397.68 C 632.02 401.81 634.34 405.63 634.57 409.95 C 634.84 415.62 634.22 421.31 634.52 426.99 C 634.83 431.87 636.41 436.55 638.20 441.07 C 638.29 441.53 638.48 442.46 638.57 442.92 C 636.19 445.82 634.25 449.02 632.38 452.26 C 626.78 458.98 620.76 465.34 614.56 471.51 C 601.07 485.20 586.67 498.28 570.01 508.03 C 562.70 512.06 554.86 516.30 546.27 516.05 C 540.98 515.84 535.61 512.29 534.59 506.89 C 533.34 498.70 536.69 490.87 539.07 483.21 C 540.87 476.65 544.48 470.84 547.62 464.87 C 564.49 433.50 586.47 405.31 608.41 377.39 C 630.74 348.48 653.61 319.98 676.76 291.72 C 680.83 287.32 684.35 281.59 690.51 279.98 C 687.80 282.45 684.70 284.52 682.51 287.51 C 672.06 301.66 662.48 316.44 652.18 330.70 C 666.55 313.63 680.75 296.35 696.45 280.46 C 699.29 277.84 702.14 273.74 706.56 275.00 C 710.50 271.48 714.48 267.98 718.72 264.81 Z" />
<path fill="#f7e5c8" d=" M 709.10 282.07 C 714.91 276.14 720.78 270.04 728.02 265.84 C 724.77 273.56 720.55 280.83 717.14 288.49 C 709.22 290.34 703.76 296.83 697.95 302.02 C 699.97 298.09 702.32 294.33 704.24 290.34 C 705.66 287.48 706.74 284.34 709.10 282.07 Z" />
<path fill="#f5f4f0" d=" M 310.47 269.28 C 311.59 269.24 312.72 269.20 313.85 269.17 C 311.17 274.35 308.93 279.75 306.27 284.94 C 306.68 279.49 308.88 274.44 310.47 269.28 Z" />
<path fill="#f5f4f0" d=" M 757.30 288.13 C 758.47 283.59 761.24 279.69 763.65 275.73 C 765.59 284.02 766.40 292.53 767.12 301.00 C 768.08 311.81 765.69 322.48 764.32 333.14 C 762.03 349.37 758.33 365.42 752.08 380.61 C 751.27 380.58 749.65 380.54 748.84 380.51 C 755.02 355.51 758.70 329.74 758.20 303.94 C 758.28 298.65 756.87 293.41 757.30 288.13 Z" />
<path fill="#f7e5c8" d=" M 386.09 328.93 C 396.26 312.83 405.52 296.17 415.80 280.13 C 407.17 297.13 397.88 313.88 386.09 328.93 Z" />
<path fill="#f5f4f0" d=" M 320.19 335.15 C 322.16 331.55 325.09 328.58 328.07 325.79 C 326.09 333.57 323.43 341.69 317.13 347.09 C 317.79 343.03 318.52 338.93 320.19 335.15 Z" />
<path fill="#f7e5c8" d=" M 356.83 354.11 C 357.85 353.24 358.84 352.34 359.81 351.41 C 359.25 352.37 358.71 353.33 358.19 354.31 C 357.12 355.15 355.84 356.14 354.39 355.65 C 354.28 354.53 356.03 354.38 356.83 354.11 Z" />
<path fill="#030302" d=" M 654.07 394.65 C 662.18 393.68 670.29 391.38 678.52 392.58 C 678.09 392.87 677.22 393.45 676.79 393.74 C 676.01 394.36 674.93 394.15 674.04 394.23 C 667.38 394.15 660.70 394.06 654.07 394.65 Z" />
<path fill="#f7e5c8" d=" M 678.52 392.58 C 686.23 391.70 694.15 392.47 701.95 392.25 C 720.32 392.14 738.68 392.42 757.06 392.42 C 774.43 392.16 791.80 392.29 809.17 392.68 C 807.42 394.93 804.45 394.14 802.01 394.15 C 795.34 393.64 788.63 393.76 781.99 392.98 C 771.65 391.95 761.37 393.83 751.04 393.77 C 741.01 393.95 731.03 392.60 721.01 392.75 C 706.23 392.59 691.52 396.31 676.79 393.74 C 677.22 393.45 678.09 392.87 678.52 392.58 Z" />
<path fill="#f5f4f0" d=" M 830.15 395.96 C 841.66 393.70 853.46 394.55 865.04 395.70 C 872.71 396.54 880.81 397.19 887.54 401.33 C 889.28 402.40 891.79 404.62 889.79 406.70 C 888.11 410.09 884.30 408.22 881.52 407.71 C 875.41 406.72 870.09 403.31 864.03 402.14 C 853.11 398.41 841.64 396.66 830.15 395.96 Z" />
<path fill="#030302" d=" M 636.76 402.96 C 636.54 400.30 639.71 399.95 641.45 398.93 C 641.06 401.60 640.28 404.28 640.64 406.99 C 641.17 409.03 642.54 410.70 643.65 412.46 C 643.41 413.01 642.93 414.10 642.69 414.65 C 639.30 411.75 635.93 407.76 636.76 402.96 Z" />
<path fill="#f5f4f0" d=" M 895.30 401.81 C 899.64 404.09 905.38 407.30 904.78 413.05 C 903.55 418.78 898.81 423.06 894.11 426.20 C 885.81 431.20 876.53 434.45 867.10 436.56 C 872.46 434.05 877.77 431.22 882.10 427.11 C 886.11 422.75 893.72 423.62 896.65 417.97 C 897.75 415.27 895.45 413.25 893.60 411.74 C 895.41 408.71 895.90 405.26 895.30 401.81 Z" />
<path fill="#030302" d=" M 653.49 403.67 C 658.97 403.40 664.46 403.75 669.95 403.91 C 667.69 404.71 665.45 405.50 663.19 406.26 C 659.93 405.48 656.53 405.13 653.49 403.67 Z" />
<path fill="#d15419" d=" M 645.52 406.11 C 646.53 404.88 648.69 406.56 647.68 407.83 C 646.66 409.03 644.51 407.37 645.52 406.11 Z" />
<path fill="#030302" d=" M 650.32 408.09 C 652.46 408.58 654.58 409.13 656.71 409.68 C 656.52 410.58 656.34 411.49 656.17 412.40 C 653.85 411.68 651.53 410.92 649.24 410.09 C 649.51 409.59 650.05 408.59 650.32 408.09 Z" />
<path fill="#f7e5c8" d=" M 642.69 414.65 C 642.93 414.10 643.41 413.01 643.65 412.46 C 644.95 413.18 646.29 413.88 647.63 414.56 C 647.14 414.68 646.16 414.93 645.68 415.05 C 645.35 415.46 644.70 416.29 644.38 416.71 C 643.60 417.74 642.84 418.80 642.12 419.87 C 640.60 422.10 639.03 424.29 637.46 426.49 C 637.19 424.72 636.94 422.95 636.69 421.20 C 637.77 419.90 638.84 418.60 640.01 417.39 C 640.74 416.69 641.52 416.04 642.34 415.44 L 642.69 414.65 Z" />
<path fill="#030302" d=" M 636.70 412.98 C 637.81 414.44 638.92 415.91 640.01 417.39 C 638.84 418.60 637.77 419.90 636.69 421.20 C 636.60 418.46 636.60 415.71 636.70 412.98 Z" />
<path fill="#030302" d=" M 645.68 415.05 C 646.16 414.93 647.14 414.68 647.63 414.56 L 648.12 414.44 C 648.64 415.00 649.69 416.10 650.21 416.65 C 649.24 420.87 654.44 420.80 657.15 421.91 C 656.68 422.47 655.74 423.60 655.27 424.16 L 655.04 424.44 C 651.28 422.16 647.55 419.78 644.38 416.71 C 644.70 416.29 645.35 415.46 645.68 415.05 Z" />
<path fill="#030302" d=" M 637.46 426.49 C 639.03 424.29 640.60 422.10 642.12 419.87 C 645.87 422.95 649.64 426.00 653.72 428.64 C 653.33 428.59 652.53 428.48 652.14 428.43 C 648.84 432.85 645.34 437.12 641.83 441.38 C 639.14 437.04 637.59 432.08 637.08 427.01 L 637.46 426.49 Z" />
<path fill="#f5f4f0" d=" M 303.04 420.77 C 306.17 422.13 306.21 425.92 307.49 428.63 C 308.82 432.79 312.05 435.85 314.39 439.42 C 314.98 444.94 315.25 450.52 315.77 456.07 C 313.86 452.86 312.26 449.48 310.98 445.98 C 307.90 437.73 304.57 429.48 303.04 420.77 Z" />
<path fill="#f7e5c8" d=" M 657.15 421.91 C 660.39 422.45 662.69 424.79 665.28 426.57 C 670.44 429.28 676.23 430.51 681.90 431.71 C 691.48 433.74 701.25 434.56 710.97 435.65 C 713.15 442.79 721.91 442.00 727.85 442.59 C 710.24 441.81 692.72 438.54 675.91 433.26 C 668.80 430.81 661.67 428.17 655.27 424.16 C 655.74 423.60 656.68 422.47 657.15 421.91 Z" />
<path fill="#f7e5c8" d=" M 598.14 469.07 C 612.01 456.10 621.97 439.78 633.67 424.99 C 633.94 426.79 634.20 428.60 634.46 430.41 C 623.25 445.72 610.91 460.17 597.92 473.98 C 592.23 479.93 586.20 485.54 579.89 490.82 C 586.02 483.61 591.90 476.18 598.14 469.07 Z" />
<path fill="#f7e5c8" d=" M 652.14 428.43 C 652.53 428.48 653.33 428.59 653.72 428.64 L 654.00 428.68 C 670.80 439.22 690.28 444.74 709.64 448.29 C 706.30 451.51 703.51 455.22 700.82 458.98 C 694.79 460.55 690.39 465.99 684.04 466.55 C 677.98 466.66 673.94 461.48 671.38 456.64 C 669.00 452.77 667.27 448.29 663.72 445.30 C 658.05 443.85 655.58 452.45 650.06 451.41 C 646.17 449.20 644.22 444.96 641.83 441.38 C 645.34 437.12 648.84 432.85 652.14 428.43 Z" />
<path fill="#f5f4f0" d=" M 890.56 439.51 C 895.85 436.45 899.98 431.68 905.51 429.05 C 903.74 438.64 901.77 448.76 896.10 456.90 C 891.58 456.32 892.47 450.51 890.04 447.71 C 886.84 453.96 886.43 462.03 880.59 466.66 C 876.31 469.53 871.79 465.61 868.06 463.61 C 864.64 464.45 861.67 466.83 858.03 466.82 C 852.77 466.95 847.44 466.84 842.29 465.68 C 838.69 464.91 835.67 462.56 832.09 461.79 C 823.68 462.45 817.36 469.59 808.94 470.37 C 805.25 470.55 801.50 470.06 798.02 468.85 C 794.68 467.69 792.20 465.01 789.04 463.54 C 787.56 463.35 786.60 464.64 785.50 465.36 C 781.45 468.81 777.23 472.34 772.04 473.90 C 765.77 475.84 759.15 474.83 752.78 474.15 C 752.68 473.67 752.47 472.70 752.37 472.22 C 755.74 466.32 759.34 460.55 762.16 454.36 C 773.09 454.71 784.00 455.69 794.94 455.76 C 815.08 457.01 835.24 455.06 855.12 451.94 C 852.40 454.26 849.32 456.20 846.99 458.94 C 845.59 460.35 845.76 463.38 848.00 463.82 C 855.83 466.71 864.38 464.10 871.49 460.47 C 875.07 458.72 877.58 455.42 878.92 451.72 C 882.80 449.50 887.11 447.61 889.97 444.02 C 891.26 442.82 890.57 441.03 890.56 439.51 Z" />
<path fill="#465c66" d=" M 638.20 441.07 C 638.67 442.13 639.18 443.17 639.74 444.20 C 637.80 446.78 634.27 449.19 635.32 452.88 C 636.45 458.05 639.42 462.56 641.34 467.45 C 644.83 476.12 649.28 484.37 652.80 493.03 C 655.61 499.88 658.25 506.79 660.74 513.76 C 661.28 515.22 661.83 516.69 662.37 518.17 C 664.01 522.89 665.57 527.65 667.64 532.22 C 668.71 531.21 669.78 530.22 670.87 529.22 C 669.23 524.99 667.52 520.79 665.89 516.55 C 665.25 514.85 664.64 513.14 664.08 511.43 C 662.73 507.12 660.94 502.62 662.20 498.06 C 657.16 491.37 654.10 483.51 649.25 476.70 C 645.59 470.05 640.50 463.96 638.84 456.41 C 643.09 455.54 646.40 458.42 649.35 461.01 C 649.98 460.69 650.63 460.37 651.29 460.06 C 651.81 463.89 654.97 466.30 658.46 467.37 C 658.77 464.06 657.76 460.27 659.86 457.41 C 661.55 457.61 662.68 459.02 663.62 460.31 C 666.47 464.34 668.02 469.11 669.21 473.86 C 670.05 472.54 670.91 471.23 671.79 469.95 C 673.53 472.46 674.30 476.10 677.41 477.33 C 679.33 478.07 681.84 479.58 683.52 477.57 C 686.61 474.72 690.60 473.35 694.74 473.02 C 696.10 472.15 697.42 471.20 698.95 470.64 C 700.94 470.42 702.44 471.95 703.96 472.99 C 707.50 475.99 712.37 476.31 716.42 478.35 C 720.31 479.94 723.44 482.78 726.78 485.24 C 728.86 486.70 731.31 485.03 733.36 484.33 C 737.41 482.39 741.82 481.23 746.35 481.42 C 749.21 484.13 752.88 486.31 756.99 485.58 C 779.34 482.41 801.66 479.03 824.10 476.55 C 834.03 475.57 844.00 474.33 853.99 474.86 C 855.93 474.73 857.39 476.06 858.82 477.17 C 861.30 477.16 863.87 477.38 865.76 479.20 C 867.75 479.74 871.38 479.20 871.68 481.97 C 872.67 484.73 869.30 485.55 867.62 486.87 C 867.45 487.83 867.29 488.79 867.14 489.76 C 868.23 489.55 869.33 489.35 870.45 489.16 C 871.19 486.75 871.72 484.25 872.85 481.97 C 873.56 481.09 874.45 480.86 875.52 481.29 C 875.75 483.60 875.63 485.94 875.61 488.27 C 877.90 489.49 877.98 491.78 877.55 494.09 C 877.90 495.63 879.08 497.32 878.19 498.91 C 876.52 501.52 873.11 501.75 870.43 502.60 C 868.08 507.66 866.26 512.94 864.32 518.17 C 867.47 518.56 870.18 520.38 871.21 523.47 C 872.17 523.01 873.13 522.55 874.11 522.10 C 878.04 506.57 882.89 491.25 885.76 475.46 C 886.68 471.42 887.39 467.17 889.66 463.63 C 890.68 461.94 892.69 460.54 894.71 461.45 C 893.17 463.75 891.66 466.15 891.72 469.04 C 890.66 484.93 888.08 500.71 883.80 516.05 C 883.21 518.71 881.40 521.81 883.73 524.13 C 884.51 530.49 881.50 536.35 879.33 542.12 C 876.70 548.88 872.76 554.99 869.56 561.47 C 866.27 569.57 863.20 577.77 859.73 585.80 C 860.53 585.69 862.13 585.47 862.93 585.36 C 862.49 586.01 862.07 586.66 861.65 587.32 C 860.99 587.48 859.68 587.80 859.02 587.96 C 852.85 600.85 846.62 613.81 838.76 625.78 C 826.63 644.08 809.52 658.21 792.38 671.60 C 792.40 672.32 792.44 673.76 792.45 674.47 C 791.65 674.41 790.06 674.28 789.26 674.21 C 778.29 683.70 766.58 692.83 752.94 698.13 C 745.15 701.03 735.81 702.03 728.36 697.73 C 721.37 693.47 718.46 685.46 714.24 678.89 C 709.46 671.61 707.00 663.18 704.51 654.94 C 699.06 639.44 692.08 624.52 686.87 608.93 C 681.08 591.24 675.42 573.52 669.36 555.92 C 659.98 561.62 650.13 566.55 640.11 571.00 C 612.62 581.71 584.06 589.93 554.83 594.13 C 553.66 593.97 552.50 593.82 551.35 593.68 C 561.38 592.95 571.15 590.38 580.99 588.46 C 601.10 583.94 620.82 577.73 640.00 570.19 C 649.74 565.73 659.50 561.17 668.55 555.39 C 665.10 544.75 661.42 534.18 658.22 523.45 C 657.53 521.19 656.83 518.94 656.13 516.69 C 652.94 506.41 649.73 496.11 645.53 486.20 C 640.75 475.04 636.64 463.62 632.38 452.26 C 634.25 449.02 636.19 445.82 638.57 442.92 C 638.48 442.46 638.29 441.53 638.20 441.07 Z" />
<path fill="#f7e5c8" d=" M 879.08 444.23 C 880.48 443.69 880.94 444.14 880.48 445.55 C 879.06 446.08 878.59 445.64 879.08 444.23 Z" />
<path fill="#f7e5c8" d=" M 635.32 452.88 C 634.27 449.19 637.80 446.78 639.74 444.20 C 642.33 448.70 646.15 454.21 652.00 453.89 C 656.44 452.75 659.42 448.85 662.99 446.23 C 667.87 452.75 669.62 461.63 676.40 466.64 C 681.70 470.46 688.64 468.80 693.85 465.70 C 693.14 467.13 692.51 468.61 691.90 470.09 C 696.79 470.56 700.21 466.90 703.52 463.93 C 709.28 471.82 719.43 475.42 728.96 474.35 C 732.84 473.82 736.24 471.69 740.04 470.83 C 743.53 472.23 746.54 474.63 750.14 475.81 C 748.92 477.70 747.66 479.58 746.35 481.42 C 741.82 481.23 737.41 482.39 733.36 484.33 C 731.31 485.03 728.86 486.70 726.78 485.24 C 723.44 482.78 720.31 479.94 716.42 478.35 C 712.37 476.31 707.50 475.99 703.96 472.99 C 702.44 471.95 700.94 470.42 698.95 470.64 C 697.42 471.20 696.10 472.15 694.74 473.02 C 690.60 473.35 686.61 474.72 683.52 477.57 C 681.84 479.58 679.33 478.07 677.41 477.33 C 674.30 476.10 673.53 472.46 671.79 469.95 C 670.91 471.23 670.05 472.54 669.21 473.86 C 668.02 469.11 666.47 464.34 663.62 460.31 C 662.68 459.02 661.55 457.61 659.86 457.41 C 657.76 460.27 658.77 464.06 658.46 467.37 C 654.97 466.30 651.81 463.89 651.29 460.06 C 650.63 460.37 649.98 460.69 649.35 461.01 C 646.40 458.42 643.09 455.54 638.84 456.41 C 640.50 463.96 645.59 470.05 649.25 476.70 C 654.10 483.51 657.16 491.37 662.20 498.06 C 660.94 502.62 662.73 507.12 664.08 511.43 C 663.40 512.76 662.09 513.35 660.74 513.76 C 658.25 506.79 655.61 499.88 652.80 493.03 C 649.28 484.37 644.83 476.12 641.34 467.45 C 639.42 462.56 636.45 458.05 635.32 452.88 Z" />
<path fill="#f5f4f0" d=" M 849.21 461.66 C 857.50 455.51 865.85 448.58 876.12 446.17 C 875.06 450.04 870.47 448.81 867.82 450.82 C 864.88 452.88 861.41 456.90 864.67 460.24 C 859.73 462.01 854.39 462.70 849.21 461.66 Z" />
<path fill="#f5f4f0" d=" M 700.82 458.98 C 703.51 455.22 706.30 451.51 709.64 448.29 C 712.01 448.77 714.39 449.26 716.76 449.79 C 713.40 454.55 709.00 458.38 704.88 462.43 C 703.53 461.27 702.17 460.12 700.82 458.98 Z" />
<path fill="#f7e5c8" d=" M 716.76 449.79 L 716.90 449.60 C 721.92 450.49 726.99 451.01 732.02 451.85 C 727.47 457.86 724.48 464.87 720.78 471.40 C 714.49 470.67 708.80 467.38 704.88 462.43 C 709.00 458.38 713.40 454.55 716.76 449.79 Z" />
<path fill="#f7e5c8" d=" M 865.18 457.69 C 866.30 453.98 869.52 451.62 873.20 450.87 C 871.39 453.99 868.78 456.75 865.18 457.69 Z" />
<path fill="#f5f4f0" d=" M 732.02 451.85 C 732.74 451.86 734.17 451.88 734.89 451.89 C 732.40 459.10 727.37 465.02 723.77 471.67 C 723.02 471.60 721.53 471.47 720.78 471.40 C 724.48 464.87 727.47 457.86 732.02 451.85 Z" />
<path fill="#f7e5c8" d=" M 734.89 451.89 C 743.93 453.16 753.07 453.51 762.16 454.36 C 759.34 460.55 755.74 466.32 752.37 472.22 C 752.47 472.70 752.68 473.67 752.78 474.15 C 748.13 473.21 744.40 470.15 740.06 468.56 C 734.52 468.96 729.47 472.22 723.77 471.67 C 727.37 465.02 732.40 459.10 734.89 451.89 Z" />
<path fill="#f7e5c8" d=" M 660.47 461.11 C 662.07 463.84 663.09 466.87 662.36 470.06 C 661.10 467.24 660.50 464.19 660.47 461.11 Z" />
<path fill="#f5f4f0" d=" M 693.85 465.70 C 696.14 464.03 698.46 462.41 700.83 460.84 C 701.72 461.86 702.61 462.89 703.52 463.93 C 700.21 466.90 696.79 470.56 691.90 470.09 C 692.51 468.61 693.14 467.13 693.85 465.70 Z" />
<path fill="#f7e5c8" d=" M 645.29 463.97 C 648.95 467.14 652.53 470.41 656.08 473.71 C 655.14 474.54 654.18 475.36 653.25 476.20 C 650.54 472.16 647.79 468.14 645.29 463.97 Z" />
<path fill="#f7e5c8" d=" M 687.54 479.60 C 689.30 478.71 691.23 478.33 693.19 478.13 C 692.57 480.83 689.44 479.47 687.54 479.60 Z" />
<path fill="#f7e5c8" d=" M 695.35 478.32 C 698.24 478.63 701.11 479.08 703.96 479.69 C 702.27 483.09 698.06 480.36 695.22 480.44 C 695.25 479.91 695.31 478.85 695.35 478.32 Z" />
<path fill="#f7e5c8" d=" M 707.17 480.25 C 710.16 481.27 713.12 482.36 716.04 483.57 C 713.10 483.19 710.17 482.75 707.24 482.42 C 707.22 481.87 707.19 480.79 707.17 480.25 Z" />
<path fill="#f7e5c8" d=" M 552.76 482.72 C 553.26 482.71 554.24 482.68 554.73 482.67 C 552.80 485.02 550.94 487.43 549.16 489.91 C 550.29 487.47 551.50 485.08 552.76 482.72 Z" />
<path fill="#f7e5c8" d=" M 737.72 485.79 C 739.71 484.65 741.72 483.49 743.92 482.79 C 745.77 481.90 746.97 484.09 748.20 485.03 C 744.73 485.56 741.22 485.80 737.72 485.79 Z" />
<path fill="#f7e5c8" d=" M 683.29 486.48 C 685.72 486.83 688.15 487.19 690.59 487.53 C 690.59 488.15 690.58 489.37 690.58 489.98 C 688.21 489.59 685.87 489.11 683.57 488.47 C 683.50 487.98 683.36 486.98 683.29 486.48 Z" />
<path fill="#f7e5c8" d=" M 542.32 505.69 C 550.47 500.50 558.05 494.49 565.50 488.35 C 563.49 492.79 560.62 498.07 563.42 502.79 C 557.56 506.27 550.94 509.85 543.88 508.57 C 543.49 507.85 542.71 506.41 542.32 505.69 Z" />
<path fill="#f7e5c8" d=" M 693.41 488.10 C 695.71 488.22 698.03 488.47 700.29 489.04 C 698.36 490.52 696.15 491.59 693.68 491.53 C 693.58 490.38 693.49 489.23 693.41 488.10 Z" />
<path fill="#f7e5c8" d=" M 853.56 490.07 C 855.04 488.56 857.22 488.64 859.16 488.38 C 858.27 489.04 857.35 489.66 856.46 490.30 C 856.18 490.92 855.63 492.18 855.36 492.80 C 857.17 492.76 858.99 492.72 860.82 492.69 C 861.44 491.39 862.11 490.12 862.81 488.86 C 862.55 490.52 861.30 492.14 861.59 493.82 C 863.05 495.36 865.01 496.71 865.29 499.02 C 865.48 503.64 862.02 508.66 856.98 508.31 C 854.15 507.54 851.10 506.05 850.02 503.13 C 848.53 499.65 849.86 495.80 851.72 492.75 C 851.05 495.58 850.35 498.40 850.10 501.31 C 851.96 500.20 853.48 497.78 855.96 498.28 C 858.92 498.30 860.92 500.86 863.27 502.32 C 864.56 497.96 860.63 495.49 857.09 494.42 C 855.76 495.51 854.38 496.54 852.84 497.29 C 853.26 495.92 854.04 494.73 855.02 493.71 C 855.07 492.51 855.11 491.32 855.15 490.13 L 853.56 490.07 Z" />
<path fill="#f7e5c8" d=" M 827.83 492.46 C 829.96 491.59 832.22 491.19 834.52 491.17 C 832.94 493.37 830.10 492.54 827.83 492.46 Z" />
<path fill="#f7e5c8" d=" M 868.30 491.24 C 872.27 490.59 868.05 495.69 867.17 492.36 C 867.45 492.08 868.02 491.52 868.30 491.24 Z" />
<path fill="#f7e5c8" d=" M 686.69 494.28 C 689.29 493.98 691.50 494.92 692.83 497.23 C 697.03 497.24 701.68 497.22 705.15 500.00 C 702.30 501.57 698.98 502.29 695.86 501.15 C 694.88 502.96 694.30 505.18 692.53 506.41 C 690.96 506.74 689.34 506.59 687.76 506.62 C 686.61 505.75 685.46 504.91 684.30 504.10 C 684.03 500.62 685.43 497.42 686.69 494.28 Z" />
<path fill="#465c66" d=" M 686.62 496.47 C 687.96 496.79 689.32 497.12 690.68 497.45 C 690.48 499.76 690.39 502.07 690.10 504.38 C 685.14 505.93 686.53 499.31 686.62 496.47 Z" />
<path fill="#f7e5c8" d=" M 783.34 497.47 C 786.74 496.61 790.34 497.66 792.83 500.11 C 797.00 502.88 796.18 508.77 794.44 512.76 C 792.75 512.31 791.38 511.32 790.66 509.70 C 787.02 509.87 783.06 509.47 780.53 506.52 C 779.67 503.25 780.51 499.52 783.34 497.47 Z" />
<path fill="#465c66" d=" M 690.51 504.97 C 691.41 502.53 691.05 497.93 694.76 498.21 C 693.89 500.64 693.73 504.47 690.51 504.97 Z" />
<path fill="#465c66" d=" M 781.20 504.21 C 782.20 502.14 783.30 500.12 784.55 498.19 C 786.33 498.67 788.12 499.18 789.91 499.68 C 788.74 501.27 787.80 503.01 787.15 504.88 C 787.61 505.62 788.54 507.10 789.00 507.84 C 785.85 508.01 783.01 506.80 781.20 504.21 Z" />
<path fill="#465c66" d=" M 852.57 503.14 C 852.72 501.56 853.89 500.38 854.64 499.06 C 856.63 499.83 858.60 500.71 860.51 501.70 C 860.49 502.72 860.45 504.76 860.44 505.77 C 857.61 505.75 854.37 505.69 852.57 503.14 Z" />
<path fill="#465c66" d=" M 788.21 502.46 C 789.88 502.18 791.53 502.38 792.85 503.56 C 792.35 504.43 791.35 506.17 790.86 507.04 C 789.37 505.91 788.63 504.20 788.21 502.46 Z" />
<path fill="#f7e5c8" d=" M 678.74 504.05 C 679.87 505.60 680.96 507.19 681.97 508.85 C 680.89 508.82 679.90 508.58 678.98 508.14 C 678.79 506.78 678.78 505.41 678.74 504.05 Z" />
<path fill="#f7e5c8" d=" M 745.72 513.49 C 744.67 510.00 746.11 506.34 748.79 504.02 C 748.02 505.55 747.12 507.01 746.24 508.47 C 749.23 509.50 755.23 509.49 754.68 514.02 C 754.80 516.27 752.29 518.15 750.15 517.36 C 748.27 516.68 746.81 515.10 745.72 513.49 Z" />
<path fill="#465c66" d=" M 794.45 511.88 C 789.69 511.76 791.94 505.89 794.92 504.72 C 794.96 507.11 794.82 509.51 794.45 511.88 Z" />
<path fill="#f5f4f0" d=" M 664.08 511.43 C 664.64 513.14 665.25 514.85 665.89 516.55 C 664.71 517.08 663.53 517.62 662.37 518.17 C 661.83 516.69 661.28 515.22 660.74 513.76 C 662.09 513.35 663.40 512.76 664.08 511.43 Z" />
<path fill="#465c66" d=" M 746.07 510.25 C 749.37 510.26 754.23 510.84 753.80 515.32 C 752.38 515.77 750.96 516.22 749.56 516.67 C 749.48 516.04 749.34 514.76 749.27 514.13 C 748.02 513.01 746.45 512.01 746.07 510.25 Z" />
<path fill="#f5f4f0" d=" M 760.11 515.71 C 762.80 515.54 765.49 515.37 768.19 515.30 C 766.86 518.43 763.51 519.48 760.68 520.82 C 760.48 519.11 760.28 517.40 760.11 515.71 Z" />
<path fill="#f5f4f0" d=" M 777.02 517.66 C 777.66 516.83 778.31 516.01 778.98 515.19 C 779.58 515.31 780.78 515.56 781.37 515.69 C 781.45 516.16 781.60 517.10 781.67 517.57 C 780.11 517.60 778.56 517.64 777.02 517.66 Z" />
<path fill="#f5f4f0" d=" M 635.22 527.54 C 641.45 522.66 648.78 519.48 656.13 516.69 C 656.83 518.94 657.53 521.19 658.22 523.45 C 653.09 528.17 648.41 533.33 643.37 538.15 C 642.71 535.73 642.55 533.05 641.13 530.94 C 639.25 529.64 637.13 528.77 635.22 527.54 Z" />
<path fill="#f7e5c8" d=" M 662.37 518.17 C 663.53 517.62 664.71 517.08 665.89 516.55 C 667.52 520.79 669.23 524.99 670.87 529.22 C 669.78 530.22 668.71 531.21 667.64 532.22 C 665.57 527.65 664.01 522.89 662.37 518.17 Z" />
<path fill="#f7e5c8" d=" M 826.32 533.99 C 826.26 529.93 827.81 525.96 830.52 522.96 C 828.03 527.61 826.19 532.80 827.52 538.13 C 829.50 539.25 831.57 540.23 833.79 540.86 C 831.54 538.89 830.91 536.19 831.28 533.34 C 833.91 529.90 838.90 529.23 842.47 531.60 C 844.18 532.33 843.70 534.51 843.74 536.01 C 843.60 539.01 840.95 541.11 838.37 542.12 C 834.62 543.23 830.48 541.94 827.57 539.47 C 825.94 538.14 826.36 535.83 826.32 533.99 Z" />
<path fill="#f7e5c8" d=" M 707.09 523.91 C 708.91 524.37 710.72 524.84 712.54 525.35 C 711.79 530.48 714.10 535.96 711.72 540.82 C 711.42 540.36 710.80 539.46 710.50 539.01 C 711.76 537.15 712.27 534.98 712.53 532.79 C 709.64 532.42 706.74 532.09 703.94 531.26 C 703.36 530.43 702.79 529.60 702.23 528.78 C 703.78 527.09 705.41 525.48 707.09 523.91 Z" />
<path fill="#f5f4f0" d=" M 519.44 528.56 C 524.09 526.77 529.07 526.05 533.95 525.14 C 530.62 528.17 527.52 531.80 523.07 533.20 C 519.14 534.55 515.32 536.22 511.32 537.36 C 509.84 537.87 508.41 537.04 507.02 536.68 C 511.15 533.96 515.10 530.93 519.44 528.56 Z" />
<path fill="#465c66" d=" M 704.12 530.48 C 704.39 528.87 704.92 527.35 705.70 525.93 C 707.60 526.92 709.06 528.49 710.00 530.43 C 708.03 530.49 706.07 530.50 704.12 530.48 Z" />
<path fill="#f7e5c8" d=" M 668.18 533.97 C 667.34 532.08 670.20 531.66 671.25 530.86 C 673.03 537.73 675.33 544.45 677.20 551.30 C 676.32 551.30 675.48 551.33 674.62 551.35 C 672.54 545.53 669.93 539.89 668.18 533.97 Z" />
<path fill="#465c66" d=" M 832.37 535.98 C 833.52 533.83 835.95 530.53 838.66 532.34 C 836.86 534.23 837.74 536.45 838.63 538.49 C 837.63 538.51 835.64 538.57 834.64 538.59 C 833.73 537.83 832.97 536.96 832.37 535.98 Z" />
<path fill="#465c66" d=" M 839.37 535.88 C 838.23 534.64 840.02 532.39 841.36 533.64 C 842.49 534.80 840.62 537.28 839.37 535.88 Z" />
<path fill="#f5f4f0" d=" M 796.30 540.28 C 798.22 539.44 800.32 539.13 802.35 538.63 C 800.30 542.16 797.33 544.98 794.33 547.69 C 794.90 545.20 795.33 542.65 796.30 540.28 Z" />
<path fill="#f5f4f0" d=" M 627.10 546.23 C 631.57 544.80 635.71 542.52 640.13 540.96 C 638.20 543.69 635.91 546.33 632.74 547.62 C 616.27 554.80 599.12 560.36 581.67 564.54 C 580.05 564.82 578.42 564.93 576.80 565.07 C 580.26 561.70 584.30 559.03 588.13 556.10 C 590.72 554.00 594.17 553.95 597.31 553.37 C 607.39 551.68 617.39 549.43 627.10 546.23 Z" />
<path fill="#f5f4f0" d=" M 855.80 543.10 C 854.32 546.56 853.10 550.32 850.22 552.91 C 851.25 549.23 852.67 545.51 855.80 543.10 Z" />
<path fill="#f7e5c8" d=" M 782.13 546.38 C 783.72 545.78 784.24 546.32 783.66 548.00 C 782.04 548.59 781.53 548.04 782.13 546.38 Z" />
<path fill="#f7e5c8" d=" M 796.48 549.61 C 798.31 548.81 800.07 549.99 801.72 550.69 C 801.39 552.47 800.95 554.24 800.50 556.01 C 802.09 556.50 803.54 557.36 804.23 558.96 C 801.55 558.02 799.00 556.70 796.70 555.05 C 794.74 554.05 794.99 550.89 796.48 549.61 Z" />
<path fill="#f5f4f0" d=" M 674.62 551.35 C 675.48 551.33 676.32 551.30 677.20 551.30 L 677.31 551.30 C 682.68 569.37 688.87 587.32 697.84 603.96 C 699.34 606.40 699.32 609.36 700.34 611.99 C 700.43 614.88 700.32 617.77 700.09 620.66 C 696.65 613.76 694.47 606.35 691.81 599.14 C 686.38 583.10 680.58 567.20 674.62 551.35 Z" />
<path fill="#f5f4f0" d=" M 773.25 563.52 C 774.76 558.76 776.71 554.16 778.65 549.56 C 779.91 550.64 781.20 551.75 782.49 552.83 C 781.84 555.04 781.49 557.39 780.40 559.44 C 778.19 561.09 775.67 562.24 773.25 563.52 Z" />
<path fill="#465c66" d=" M 798.41 551.33 C 799.95 550.16 801.24 552.94 799.95 553.92 C 798.42 555.10 797.12 552.27 798.41 551.33 Z" />
<path fill="#f5f4f0" d=" M 534.97 560.15 C 543.71 559.83 552.40 558.78 561.13 558.23 C 557.31 562.69 552.81 566.53 548.21 570.16 C 543.91 572.30 538.86 571.87 534.18 572.14 C 535.02 570.68 535.97 569.27 536.56 567.69 C 536.43 566.32 535.84 565.04 535.44 563.75 C 533.54 563.01 531.65 562.22 529.80 561.37 C 531.42 560.61 533.16 560.15 534.97 560.15 Z" />
<path fill="#f5f4f0" d=" M 759.82 566.73 C 758.99 564.05 758.92 559.65 762.47 559.02 C 761.98 562.27 759.79 565.30 760.68 568.65 C 759.98 568.02 759.21 567.52 758.37 567.16 C 758.73 567.06 759.45 566.84 759.82 566.73 Z" />
<path fill="#f7e5c8" d=" M 719.26 573.58 C 715.99 570.97 715.68 566.11 718.40 562.99 C 717.81 565.41 717.38 567.86 717.18 570.35 C 718.72 572.05 720.66 573.21 723.02 573.22 C 722.16 571.45 721.26 569.70 720.36 567.97 C 720.98 566.44 721.47 564.83 722.39 563.44 C 725.41 563.46 729.25 562.80 731.45 565.44 C 732.20 568.34 730.88 571.53 728.52 573.28 C 725.44 573.63 722.34 573.49 719.26 573.58 Z" />
<path fill="#f5f4f0" d=" M 450.88 565.45 C 458.92 564.67 466.92 566.47 474.95 566.81 C 493.37 567.94 511.59 571.01 529.98 572.48 C 510.99 574.42 491.76 573.13 472.93 570.26 C 465.52 568.94 458.02 567.89 450.88 565.45 Z" />
<path fill="#465c66" d=" M 725.16 571.97 C 725.61 569.67 726.14 567.39 726.65 565.11 C 727.76 565.81 728.89 566.50 730.03 567.18 C 729.57 568.60 729.38 570.20 728.39 571.39 C 727.32 571.62 726.24 571.82 725.16 571.97 Z" />
<path fill="#465c66" d=" M 722.82 569.63 C 721.59 568.61 723.23 566.44 724.53 567.39 C 725.66 568.39 724.11 570.59 722.82 569.63 Z" />
<path fill="#f7e5c8" d=" M 786.85 572.85 C 788.20 573.59 789.53 574.39 790.87 575.19 C 792.39 575.53 794.28 575.21 795.50 576.42 C 795.66 578.15 794.47 580.95 792.39 580.47 C 790.64 579.63 790.53 577.68 790.33 576.02 C 789.15 574.96 787.98 573.92 786.85 572.85 Z" />
<path fill="#465c66" d=" M 792.25 578.01 C 795.26 576.58 792.23 581.42 792.25 578.01 Z" />
<path fill="#f5f4f0" d=" M 831.14 615.06 C 837.93 606.62 844.71 598.15 850.82 589.20 C 846.73 599.06 841.51 608.41 836.40 617.77 C 834.19 617.87 832.52 616.63 831.14 615.06 Z" />
<path fill="#f7e5c8" d=" M 731.39 617.01 C 726.77 615.27 727.25 608.00 731.88 606.58 C 740.64 606.73 744.61 618.65 738.68 624.62 C 733.89 626.14 732.14 620.58 731.39 617.01 Z" />
<path fill="#465c66" d=" M 729.12 613.29 C 729.95 611.31 730.95 609.41 732.36 607.79 C 732.84 609.84 732.13 611.83 731.44 613.74 C 730.86 613.63 729.70 613.40 729.12 613.29 Z" />
<path fill="#f7e5c8" d=" M 791.77 611.84 C 792.83 611.58 793.90 611.32 794.97 611.07 C 792.09 612.44 790.13 615.76 792.26 618.70 C 793.28 621.18 796.09 620.47 798.24 620.59 C 798.33 618.20 798.46 615.82 798.61 613.45 C 799.19 613.39 800.34 613.28 800.91 613.22 C 800.63 615.67 800.09 618.07 799.36 620.42 C 801.07 621.98 802.98 623.32 804.96 624.57 C 805.64 624.21 807.01 623.50 807.69 623.15 C 807.62 621.61 807.51 620.09 807.35 618.57 C 805.11 618.63 803.00 619.39 800.86 619.89 C 802.47 617.55 805.03 616.95 807.75 617.21 C 809.99 619.54 810.06 623.31 807.20 625.23 C 803.97 626.49 800.84 624.01 798.89 621.63 C 796.39 621.65 793.29 621.98 791.86 619.43 C 789.93 617.18 790.87 614.27 791.77 611.84 Z" />
<path fill="#465c66" d=" M 732.36 617.17 C 734.81 615.80 735.99 613.26 737.04 610.79 C 740.86 614.15 739.86 619.74 738.30 623.98 C 734.51 624.06 732.61 620.49 732.36 617.17 Z" />
<path fill="#f5f4f0" d=" M 825.28 623.97 C 827.19 621.66 828.61 618.58 831.70 617.63 C 830.34 620.43 827.54 622.00 825.28 623.97 Z" />
<path fill="#f5f4f0" d=" M 707.49 620.21 C 709.10 623.66 711.30 627.00 711.36 630.94 C 711.57 635.71 713.19 640.27 713.54 645.01 C 713.34 653.24 716.44 661.04 718.54 668.89 C 716.32 663.39 714.21 657.83 712.63 652.12 C 710.82 652.45 709.13 653.88 707.29 653.57 C 706.99 651.30 711.07 651.75 712.57 651.55 C 708.94 641.53 708.33 630.74 707.49 620.21 Z" />
<path fill="#f7e5c8" d=" M 790.61 663.51 C 788.15 659.39 788.09 654.39 789.36 649.88 C 789.43 650.97 789.58 653.17 789.65 654.26 C 790.79 653.16 791.97 652.09 793.15 651.01 C 795.33 654.93 795.04 659.59 793.70 663.74 C 792.66 663.65 791.63 663.58 790.61 663.51 Z" />
<path fill="#f7e5c8" d=" M 740.35 652.48 C 742.68 650.66 745.85 651.16 747.93 653.13 C 752.80 656.38 753.06 664.13 749.09 668.17 C 746.03 669.81 742.73 667.53 740.57 665.40 C 737.07 661.95 736.73 656.45 738.50 652.07 C 738.81 654.87 738.23 657.84 739.28 660.53 C 740.89 663.94 744.14 667.01 748.17 666.73 C 748.92 664.78 749.70 662.85 750.52 660.94 C 749.59 658.68 748.67 656.25 746.45 654.98 C 744.80 656.81 742.55 656.91 740.46 655.79 C 740.42 654.68 740.39 653.58 740.35 652.48 Z" />
<path fill="#465c66" d=" M 742.36 653.51 C 743.32 652.22 745.54 653.80 744.49 655.11 C 743.51 656.43 741.28 654.80 742.36 653.51 Z" />
<path fill="#465c66" d=" M 789.27 654.35 C 790.05 654.34 791.61 654.30 792.39 654.28 C 792.40 657.21 793.09 660.05 793.62 662.91 C 788.97 663.04 789.52 657.53 789.27 654.35 Z" />
<path fill="#f5f4f0" d=" M 722.40 656.48 C 724.70 663.00 729.73 668.33 730.41 675.48 C 733.78 675.01 738.06 673.90 738.88 670.06 C 739.46 671.27 739.79 672.57 739.98 673.91 L 741.29 673.67 C 741.12 674.20 740.78 675.26 740.60 675.79 C 737.31 674.35 733.94 676.06 731.23 677.94 C 731.67 680.17 732.02 682.43 732.35 684.69 C 730.83 682.73 729.39 680.70 728.04 678.64 C 725.73 678.77 723.42 678.80 721.11 678.76 C 723.10 678.30 725.12 677.99 727.05 677.27 C 723.27 671.07 722.37 663.59 722.40 656.48 Z" />
<path fill="#f5f4f0" d=" M 755.73 690.87 C 766.33 685.78 775.33 677.95 784.81 671.09 C 774.76 680.03 764.38 689.03 751.93 694.46 C 745.74 697.00 738.49 698.58 732.09 695.90 C 729.65 694.94 728.32 692.56 726.86 690.56 C 729.88 691.42 733.01 691.61 736.14 691.35 C 737.46 689.18 739.12 687.26 741.03 685.59 C 743.73 685.91 748.20 684.12 748.94 687.99 C 746.86 689.09 745.01 690.54 743.20 692.02 C 743.55 693.67 743.65 696.00 746.03 695.49 C 749.63 694.93 752.81 692.96 755.73 690.87 Z" />
<path fill="#030302" d=" M 775.98 713.84 C 783.44 714.06 790.85 713.38 798.28 712.80 C 793.86 713.50 789.44 714.26 784.97 714.31 C 771.85 714.43 758.74 714.74 745.63 714.83 C 755.72 713.95 765.87 714.65 775.98 713.84 Z" />
<path fill="#465c66" d=" M 0.00 840.72 C 1.15 847.47 4.23 854.04 9.43 858.61 C 13.80 862.67 19.56 864.86 25.34 866.00 L 0.00 866.00 L 0.00 840.72 Z" />
<path fill="#465c66" d=" M 1146.13 858.10 C 1150.90 853.72 1153.56 847.58 1155.00 841.37 L 1155.00 866.00 L 1128.78 866.00 C 1135.17 865.20 1141.45 862.59 1146.13 858.10 Z" />
</svg>
